<svg id="Group_38" data-name="Group 38" xmlns="http://www.w3.org/2000/svg" width="205" height="171" viewBox="0 0 205 171">
  <path id="Path_215" data-name="Path 215" d="M187.647,749.776c2.841,5.268,8.87,7.53,8.87,7.53s1.423-6.28-1.417-11.548-8.87-7.53-8.87-7.53S184.806,744.508,187.647,749.776Z" transform="translate(-178.131 -586.869)" fill="#2196f3"/>
  <path id="Path_216" data-name="Path 216" d="M163.469,773.879c5.129,3.086,7.1,9.214,7.1,9.214s-6.34,1.126-11.469-1.959-7.1-9.214-7.1-9.214S158.34,770.794,163.469,773.879Z" transform="translate(-152 -612.705)" fill="#2a9d8f"/>
  <rect id="Rectangle_54" data-name="Rectangle 54" width="31.999" height="0.457" transform="translate(94.454 8.207)" fill="#f2f2f2"/>
  <rect id="Rectangle_55" data-name="Rectangle 55" width="0.457" height="4.228" transform="translate(117.311 8.55)" fill="#f2f2f2"/>
  <rect id="Rectangle_56" data-name="Rectangle 56" width="0.457" height="4.228" transform="translate(103.368 8.55)" fill="#f2f2f2"/>
  <rect id="Rectangle_57" data-name="Rectangle 57" width="31.999" height="0.457" transform="translate(110.683 30.15)" fill="#f2f2f2"/>
  <rect id="Rectangle_58" data-name="Rectangle 58" width="0.457" height="4.228" transform="translate(119.368 26.035)" fill="#f2f2f2"/>
  <rect id="Rectangle_59" data-name="Rectangle 59" width="0.457" height="4.228" transform="translate(133.31 26.035)" fill="#f2f2f2"/>
  <rect id="Rectangle_60" data-name="Rectangle 60" width="31.999" height="0.457" transform="translate(153.196 40.435)" fill="#f2f2f2"/>
  <rect id="Rectangle_61" data-name="Rectangle 61" width="0.457" height="4.228" transform="translate(161.881 36.321)" fill="#f2f2f2"/>
  <rect id="Rectangle_62" data-name="Rectangle 62" width="0.457" height="4.228" transform="translate(175.824 36.321)" fill="#f2f2f2"/>
  <rect id="Rectangle_63" data-name="Rectangle 63" width="31.999" height="0.457" transform="translate(149.996 146.489)" fill="#f2f2f2"/>
  <rect id="Rectangle_64" data-name="Rectangle 64" width="0.457" height="4.228" transform="translate(158.681 142.375)" fill="#f2f2f2"/>
  <rect id="Rectangle_65" data-name="Rectangle 65" width="0.457" height="4.228" transform="translate(172.624 142.375)" fill="#f2f2f2"/>
  <rect id="Rectangle_66" data-name="Rectangle 66" width="31.999" height="0.457" transform="translate(95.369 73.12)" fill="#f2f2f2"/>
  <rect id="Rectangle_67" data-name="Rectangle 67" width="0.457" height="4.228" transform="translate(104.054 69.006)" fill="#f2f2f2"/>
  <rect id="Rectangle_68" data-name="Rectangle 68" width="0.457" height="4.228" transform="translate(117.997 69.006)" fill="#f2f2f2"/>
  <rect id="Rectangle_69" data-name="Rectangle 69" width="31.999" height="0.457" transform="translate(105.425 128.204)" fill="#f2f2f2"/>
  <rect id="Rectangle_70" data-name="Rectangle 70" width="0.457" height="4.228" transform="translate(114.111 124.09)" fill="#f2f2f2"/>
  <rect id="Rectangle_71" data-name="Rectangle 71" width="0.457" height="4.228" transform="translate(128.053 124.09)" fill="#f2f2f2"/>
  <rect id="Rectangle_72" data-name="Rectangle 72" width="31.999" height="0.457" transform="translate(156.624 111.519)" fill="#f2f2f2"/>
  <rect id="Rectangle_73" data-name="Rectangle 73" width="0.457" height="4.228" transform="translate(165.31 107.405)" fill="#f2f2f2"/>
  <rect id="Rectangle_74" data-name="Rectangle 74" width="0.457" height="4.228" transform="translate(179.252 107.405)" fill="#f2f2f2"/>
  <path id="Path_217" data-name="Path 217" d="M179.4,619.766H125.274v-.389h53.732V600.493H129.824l-2.389-4.978.351-.168,2.283,4.757H179.4Z" transform="translate(-96.641 -459.271)" fill="#2f2e41"/>
  <circle id="Ellipse_38" data-name="Ellipse 38" cx="4.088" cy="4.088" r="4.088" transform="translate(31.748 161.858)" fill="#3f3d56"/>
  <circle id="Ellipse_39" data-name="Ellipse 39" cx="4.088" cy="4.088" r="4.088" transform="translate(72.047 161.858)" fill="#3f3d56"/>
  <circle id="Ellipse_40" data-name="Ellipse 40" cx="2.531" cy="2.531" r="2.531" transform="translate(121.106 76.588)" fill="#3f3d56"/>
  <path id="Path_218" data-name="Path 218" d="M289.644,520.555H228.811l-13.163-43.024H303.2l-.08.253Zm-60.544-.389h60.259l13.31-42.246H216.175Z" transform="translate(-201.101 -385.758)" fill="#2f2e41"/>
  <path id="Path_219" data-name="Path 219" d="M147.253,451.172H93.821L82.26,413.015h76.9l-.07.225Z" transform="translate(-63.458 -318.614)" fill="#f2f2f2"/>
  <path id="Path_220" data-name="Path 220" d="M450.194,351.678l-.377-.1,2.569-9.684h14.946v.389H452.687Z" transform="translate(-347.005 -263.749)" fill="#2f2e41"/>
  <rect id="Rectangle_75" data-name="Rectangle 75" width="78.922" height="0.389" transform="translate(18.801 104.816)" fill="#2f2e41"/>
  <rect id="Rectangle_76" data-name="Rectangle 76" width="70.014" height="0.389" transform="translate(23.19 119.161)" fill="#2f2e41"/>
  <rect id="Rectangle_77" data-name="Rectangle 77" width="0.389" height="42.635" transform="translate(58.127 91.968)" fill="#2f2e41"/>
  <rect id="Rectangle_78" data-name="Rectangle 78" width="42.725" height="0.389" transform="matrix(0.065, -0.998, 0.998, 0.065, 73.155, 134.589)" fill="#2f2e41"/>
  <rect id="Rectangle_79" data-name="Rectangle 79" width="0.389" height="42.725" transform="translate(40.315 91.98) rotate(-3.729)" fill="#2f2e41"/>
  <rect id="Rectangle_80" data-name="Rectangle 80" width="205" height="1" transform="translate(0 170)" fill="#2f2e41"/>
  <path id="Path_221" data-name="Path 221" d="M747.411,135.7s3.341,9.51,1.285,10.973,6.94,13.411,6.94,13.411l10.795-2.926-5.911-10s-.771-10-.771-11.46S747.411,135.7,747.411,135.7Z" transform="translate(-611.32 -121.553)" fill="#a0616a"/>
  <path id="Path_222" data-name="Path 222" d="M747.411,135.7s3.341,9.51,1.285,10.973,6.94,13.411,6.94,13.411l10.795-2.926-5.911-10s-.771-10-.771-11.46S747.411,135.7,747.411,135.7Z" transform="translate(-611.32 -121.553)" opacity="0.1"/>
  <path id="Path_223" data-name="Path 223" d="M721.411,410.192s-.975,12.192,0,18.532,2.438,23.9,2.438,23.9,0,33.162,5.365,33.65,9.266.975,9.754-.975-2.438-2.926-.975-3.9,1.951-4.389,0-8.291,0-43.4,0-43.4l9.266,24.872s.975,20.483,1.951,23.409-.975,8.291,2.438,8.778,7.315-2.438,9.266-3.414-2.926-.975-1.951-1.463,3.9-1.951,2.926-2.438-1.951-23.9-1.951-23.9-2.682-49.987-6.1-51.938-5.608,1.409-5.608,1.409Z" transform="translate(-590.928 -328.262)" fill="#2f2e41"/>
  <path id="Path_224" data-name="Path 224" d="M754.7,758.784v3.9s-4.389,10.605,0,10.605,7.8,1.1,7.8-.364V759.759Z" transform="translate(-615.435 -602.726)" fill="#2f2e41"/>
  <path id="Path_225" data-name="Path 225" d="M860.829,758.753v3.9s4.389,10.605,0,10.605-7.8,1.1-7.8-.364V759.729Z" transform="translate(-692.796 -602.703)" fill="#2f2e41"/>
  <circle id="Ellipse_41" data-name="Ellipse 41" cx="8.778" cy="8.778" r="8.778" transform="translate(134.14 3.658)" fill="#a0616a"/>
  <path id="Path_226" data-name="Path 226" d="M762.255,201.9s2.438,7.315,6.34,5.852l3.9-1.463,6.827,46.817s-5.364,7.8-13.167,2.926S762.255,201.9,762.255,201.9Z" transform="translate(-622.019 -173.127)" fill="#2a9d8f"/>
  <path id="Path_227" data-name="Path 227" d="M795.418,179.862l2.195-4.633s12.923,6.1,14.874,8.047a7.616,7.616,0,0,1,1.951,4.877l-3.414,12.192s.975,26.822.975,27.8,3.414,6.34.975,4.389-2.926-3.9-4.877-.975-6.34,6.34-6.34,6.34Z" transform="translate(-648.355 -152.552)" fill="#3f3d56"/>
  <path id="Path_228" data-name="Path 228" d="M841.16,349.122,839.7,362.777s-8.778,7.8-6.828,8.291A2.7,2.7,0,0,0,835.8,369.6s3.414,3.414,5.365,1.463,6.828-20.483,6.828-20.483Z" transform="translate(-677.028 -286.699)" fill="#a0616a"/>
  <path id="Path_229" data-name="Path 229" d="M743.727,76.044c-1.946-.07-4.029-.1-5.669.945a8.3,8.3,0,0,0-1.959,1.918c-1.6,2.02-2.979,4.562-2.385,7.068l.689-.269a4.515,4.515,0,0,1-.435,1.934c.1-.282.422.174.335.46l-.76,2.492a2.346,2.346,0,0,1,2.992,1.785c.087-2.894.387-6.212,2.734-7.907a9.459,9.459,0,0,1,4.124-1.347,8.3,8.3,0,0,1,4,.02,2.876,2.876,0,0,1,2.07,3.056,1.362,1.362,0,0,1,1.535.756,3.973,3.973,0,0,1,.314,1.818c.626.442,1.339-.436,1.594-1.159a10.465,10.465,0,0,0,.809-5.274c-.323-1.77-1.765-3.462-3.565-3.468a1.25,1.25,0,0,0,.325-.88l-1.483-.125a1.639,1.639,0,0,0,.98-.516C749.372,78.007,744.69,76.078,743.727,76.044Z" transform="translate(-600.622 -76.014)" fill="#2f2e41"/>
  <path id="Path_230" data-name="Path 230" d="M708.68,176.736s-3.97-3.89-5.4-3.652-3.38,3.652-3.38,3.652-11.7,3.9-11.217,7.8,5.852,22.921,5.852,22.921,4.389,22.921.488,25.359,18.532,8.778,19.02,5.852,1.463-32.187,0-36.576S708.68,176.736,708.68,176.736Z" transform="translate(-566.006 -150.889)" fill="#3f3d56"/>
  <path id="Path_231" data-name="Path 231" d="M850.893,223.236h6.03s4.211,18.532,4.7,20.483,1.463,11.217.975,11.217-10.241-1.951-10.241-.488Z" transform="translate(-691.15 -189.587)" fill="#3f3d56"/>
  <path id="Path_232" data-name="Path 232" d="M766.142,322.956H743.057c-2.253-10.363-2.441-20.376,0-29.942h23.085C762.417,302.408,762.184,312.353,766.142,322.956Z" transform="translate(-606.603 -243.416)" fill="#f2f2f2"/>
  <path id="Path_233" data-name="Path 233" d="M707.938,353.712l6.828,2.926s13.167,1.951,13.167-3.414-13.167-2.438-13.167-2.438l-4.389-1.4Z" transform="translate(-580.87 -286.9)" fill="#a0616a"/>
  <path id="Path_234" data-name="Path 234" d="M678.3,210.435l-5.852,1.463-4.389,25.847s-1.463,6.828.975,7.315,9.266,4.389,9.266,4.389.975-7.315,2.926-7.315l-4.877-3.9,2.926-17.069Z" transform="translate(-549.773 -179.711)" fill="#3f3d56"/>
  <rect id="Rectangle_81" data-name="Rectangle 81" width="31.999" height="0.457" transform="translate(13.771 80.663)" fill="#f2f2f2"/>
  <rect id="Rectangle_82" data-name="Rectangle 82" width="0.457" height="4.228" transform="translate(22.456 76.548)" fill="#f2f2f2"/>
  <rect id="Rectangle_83" data-name="Rectangle 83" width="0.457" height="4.228" transform="translate(36.399 76.548)" fill="#f2f2f2"/>
  <rect id="Rectangle_84" data-name="Rectangle 84" width="31.999" height="0.457" transform="translate(24.97 13.007)" fill="#f2f2f2"/>
  <rect id="Rectangle_85" data-name="Rectangle 85" width="0.457" height="4.228" transform="translate(47.827 13.35)" fill="#f2f2f2"/>
  <rect id="Rectangle_86" data-name="Rectangle 86" width="0.457" height="4.228" transform="translate(33.884 13.35)" fill="#f2f2f2"/>
  <rect id="Rectangle_87" data-name="Rectangle 87" width="31.999" height="0.457" transform="translate(57.198 58.035)" fill="#f2f2f2"/>
  <rect id="Rectangle_88" data-name="Rectangle 88" width="0.457" height="4.228" transform="translate(80.055 58.377)" fill="#f2f2f2"/>
  <rect id="Rectangle_89" data-name="Rectangle 89" width="0.457" height="4.228" transform="translate(66.112 58.377)" fill="#f2f2f2"/>
  <rect id="Rectangle_90" data-name="Rectangle 90" width="31.999" height="0.457" transform="translate(2.8 57.806)" fill="#f2f2f2"/>
  <rect id="Rectangle_91" data-name="Rectangle 91" width="0.457" height="4.228" transform="translate(25.656 58.149)" fill="#f2f2f2"/>
  <rect id="Rectangle_92" data-name="Rectangle 92" width="0.457" height="4.228" transform="translate(11.714 58.149)" fill="#f2f2f2"/>
  <rect id="Rectangle_93" data-name="Rectangle 93" width="31.999" height="0.457" transform="translate(41.199 34.949)" fill="#f2f2f2"/>
  <rect id="Rectangle_94" data-name="Rectangle 94" width="0.457" height="4.228" transform="translate(49.884 30.835)" fill="#f2f2f2"/>
  <rect id="Rectangle_95" data-name="Rectangle 95" width="0.457" height="4.228" transform="translate(63.827 30.835)" fill="#f2f2f2"/>
</svg>
