<svg width="175" height="44" viewBox="53.337 -4.534 60.93 52.577" fill="none" xmlns="http://www.w3.org/2000/svg">
<g clip-path="url(#clip0_1107_6023)" transform="matrix(1.221636, 0, 0, 1.120999, 57.084515, -3.35211)" style="">
  <path d="M20.049 44.0001C17.8866 44.0001 16.1274 42.2619 16.1274 40.1253C16.1274 37.9887 17.8866 36.2505 20.049 36.2505C22.2115 36.2505 23.9706 37.9887 23.9706 40.1253C23.9706 42.2619 22.2115 44.0001 20.049 44.0001ZM20.049 38.5213C19.1527 38.5213 18.4257 39.2418 18.4257 40.1253C18.4257 41.0089 19.1548 41.7293 20.049 41.7293C20.9433 41.7293 21.6724 41.0089 21.6724 40.1253C21.6724 39.2418 20.9433 38.5213 20.049 38.5213Z" style="fill: rgb(255, 255, 255);"></path>
  <path d="M31.6296 44.0001C29.4672 44.0001 27.708 42.2619 27.708 40.1253C27.708 37.9887 29.4672 36.2505 31.6296 36.2505C33.792 36.2505 35.5512 37.9887 35.5512 40.1253C35.5512 42.2619 33.792 44.0001 31.6296 44.0001ZM31.6296 38.5213C30.7333 38.5213 30.0062 39.2418 30.0062 40.1253C30.0062 41.0089 30.7354 41.7293 31.6296 41.7293C32.5238 41.7293 33.253 41.0089 33.253 40.1253C33.253 39.2418 32.5238 38.5213 31.6296 38.5213Z" style="fill: rgb(255, 255, 255);"></path>
  <path d="M37.0494 38.1083C36.7548 38.1083 36.4623 37.9968 36.2366 37.7759C35.7874 37.3321 35.7874 36.6137 36.2366 36.1698L38.1797 34.2499V33.0423H11.8107C11.1756 33.0423 10.6616 32.5345 10.6616 31.9069C10.6616 31.2793 11.1756 30.7715 11.8107 30.7715H39.3309C39.966 30.7715 40.48 31.2793 40.48 31.9069V34.7206C40.48 35.022 40.3588 35.311 40.1436 35.5237L37.8642 37.7759C37.6406 37.9968 37.346 38.1083 37.0514 38.1083H37.0494Z" style="fill: rgb(247, 247, 247);"></path>
  <path d="M39.3308 33.0404C38.6956 33.0404 38.1816 32.5326 38.1816 31.905V23.4225C38.1816 22.7949 38.6956 22.2871 39.3308 22.2871C39.9659 22.2871 40.4799 22.7949 40.4799 23.4225V31.905C40.4799 32.5326 39.9659 33.0404 39.3308 33.0404Z" style="fill: rgb(255, 255, 255);"></path>
  <path d="M13.8854 41.0538C13.4112 41.0538 12.9682 40.7627 12.8011 40.2961L4.79074 17.844H1.14911C0.513965 17.844 0 17.3362 0 16.7086C0 16.0811 0.513965 15.5732 1.14911 15.5732H5.60348C6.09028 15.5732 6.52485 15.8767 6.68782 16.3309L14.9698 39.5385C15.1808 40.131 14.8674 40.7792 14.2678 40.9877C14.1403 41.0311 14.0129 41.0538 13.8854 41.0538V41.0538Z" style="fill: rgb(255, 255, 255);"></path>
  <path d="M26.3042 17.1508V5.50361C26.3042 2.46486 28.7988 0 31.8742 0V11.6472C31.8742 14.6859 29.3796 17.1508 26.3042 17.1508Z" fill="#08AC0A"></path>
  <path d="M16.9692 9.34326H18.7848C22.1444 9.34326 24.8709 12.0373 24.8709 15.3568V17.1507H23.0553C19.6958 17.1507 16.9692 14.4567 16.9692 11.1372V9.34326V9.34326Z" fill="#08AC0A"></path>
  <path d="M35.0481 28.1604C35.0481 22.9293 30.7546 18.687 25.4603 18.687C20.1661 18.687 15.8726 22.9293 15.8726 28.1604H35.0481Z" fill="#FF7006"></path>
</g>
</svg>
