<?xml version="1.0" encoding="UTF-8" standalone="no" ?>
<!DOCTYPE svg PUBLIC "-//W3C//DTD SVG 1.1//EN" "http://www.w3.org/Graphics/SVG/1.1/DTD/svg11.dtd">
<svg xmlns="http://www.w3.org/2000/svg" xmlns:xlink="http://www.w3.org/1999/xlink" version="1.1" width="1080" height="1080" viewBox="0 0 1080 1080" xml:space="preserve">
<desc>Created with Fabric.js 5.2.4</desc>
<defs>
</defs>
<rect x="0" y="0" width="100%" height="100%" fill="transparent"></rect>
<g transform="matrix(1 0 0 1 540 540)" id="98c15181-9a5d-46bc-b2e0-4ac8f51c422f"  >
</g>
<g transform="matrix(1 0 0 1 540 540)" id="23f0bcef-5aee-4201-a65d-3e43cc0b452d"  >
<rect style="stroke: none; stroke-width: 1; stroke-dasharray: none; stroke-linecap: butt; stroke-dashoffset: 0; stroke-linejoin: miter; stroke-miterlimit: 4; fill: rgb(255,255,255); fill-rule: nonzero; opacity: 1; visibility: hidden;" vector-effect="non-scaling-stroke"  x="-540" y="-540" rx="0" ry="0" width="1080" height="1080" />
</g>
<g transform="matrix(0 0 0 0 0 0)"  >
<g style=""   >
</g>
</g>
<g transform="matrix(0 0 0 0 0 0)"  >
<g style=""   >
</g>
</g>
<g transform="matrix(25.32 0 0 22.94 534.87 931.36)"  >
<path style="stroke: none; stroke-width: 1; stroke-dasharray: none; stroke-linecap: butt; stroke-dashoffset: 0; stroke-linejoin: miter; stroke-miterlimit: 4; fill: rgb(203,203,203); fill-rule: nonzero; opacity: 1;" vector-effect="non-scaling-stroke"  transform=" translate(-20.05, -40.13)" d="M 20.049 44.0001 C 17.8866 44.0001 16.1274 42.2619 16.1274 40.1253 C 16.1274 37.9887 17.8866 36.2505 20.049 36.2505 C 22.2115 36.2505 23.9706 37.9887 23.9706 40.1253 C 23.9706 42.2619 22.2115 44.0001 20.049 44.0001 Z M 20.049 38.5213 C 19.1527 38.5213 18.4257 39.2418 18.4257 40.1253 C 18.4257 41.0089 19.1548 41.7293 20.049 41.7293 C 20.9433 41.7293 21.6724 41.0089 21.6724 40.1253 C 21.6724 39.2418 20.9433 38.5213 20.049 38.5213 Z" stroke-linecap="round" />
</g>
<g transform="matrix(25.32 0 0 22.94 828.74 931.36)"  >
<path style="stroke: none; stroke-width: 1; stroke-dasharray: none; stroke-linecap: butt; stroke-dashoffset: 0; stroke-linejoin: miter; stroke-miterlimit: 4; fill: rgb(203,203,203); fill-rule: nonzero; opacity: 1;" vector-effect="non-scaling-stroke"  transform=" translate(-31.63, -40.13)" d="M 31.6296 44.0001 C 29.4672 44.0001 27.708 42.2619 27.708 40.1253 C 27.708 37.9887 29.4672 36.2505 31.6296 36.2505 C 33.792 36.2505 35.5512 37.9887 35.5512 40.1253 C 35.5512 42.2619 33.792 44.0001 31.6296 44.0001 Z M 31.6296 38.5213 C 30.7333 38.5213 30.0062 39.2418 30.0062 40.1253 C 30.0062 41.0089 30.7354 41.7293 31.6296 41.7293 C 32.5238 41.7293 33.253 41.0089 33.253 40.1253 C 33.253 39.2418 32.5238 38.5213 31.6296 38.5213 Z" stroke-linecap="round" />
</g>
<g transform="matrix(25.32 0 0 22.94 674.58 801.18)"  >
<path style="stroke: none; stroke-width: 1; stroke-dasharray: none; stroke-linecap: butt; stroke-dashoffset: 0; stroke-linejoin: miter; stroke-miterlimit: 4; fill: rgb(203,203,203); fill-rule: nonzero; opacity: 1;" vector-effect="non-scaling-stroke"  transform=" translate(-25.57, -34.44)" d="M 37.0494 38.1083 C 36.7548 38.1083 36.4623 37.9968 36.2366 37.7759 C 35.7874 37.3321 35.7874 36.6137 36.2366 36.1698 L 38.1797 34.2499 L 38.1797 33.0423 L 11.8107 33.0423 C 11.1756 33.0423 10.6616 32.5345 10.6616 31.9069 C 10.6616 31.2793 11.1756 30.7715 11.8107 30.7715 L 39.3309 30.7715 C 39.966 30.7715 40.48 31.2793 40.48 31.9069 L 40.48 34.7206 C 40.48 35.022 40.3588 35.311 40.1436 35.5237 L 37.8642 37.7759 C 37.6406 37.9968 37.346 38.1083 37.0514 38.1083 L 37.0494 38.1083 Z" stroke-linecap="round" />
</g>
<g transform="matrix(25.32 0 0 22.94 1024.38 646.11)"  >
<path style="stroke: none; stroke-width: 1; stroke-dasharray: none; stroke-linecap: butt; stroke-dashoffset: 0; stroke-linejoin: miter; stroke-miterlimit: 4; fill: rgb(203,203,203); fill-rule: nonzero; opacity: 1;" vector-effect="non-scaling-stroke"  transform=" translate(-39.33, -27.66)" d="M 39.3308 33.0404 C 38.6956 33.0404 38.1816 32.5326 38.1816 31.905 L 38.1816 23.4225 C 38.1816 22.7949 38.6956 22.2871 39.3308 22.2871 C 39.9659 22.2871 40.4799 22.7949 40.4799 23.4225 L 40.4799 31.905 C 40.4799 32.5326 39.9659 33.0404 39.3308 33.0404 Z" stroke-linecap="round" />
</g>
<g transform="matrix(25.32 0 0 22.94 216.88 661.28)"  >
<path style="stroke: none; stroke-width: 1; stroke-dasharray: none; stroke-linecap: butt; stroke-dashoffset: 0; stroke-linejoin: miter; stroke-miterlimit: 4; fill: rgb(203,203,203); fill-rule: nonzero; opacity: 1;" vector-effect="non-scaling-stroke"  transform=" translate(-7.52, -28.31)" d="M 13.8854 41.0538 C 13.4112 41.0538 12.9682 40.7627 12.8011 40.2961 L 4.79074 17.844 L 1.14911 17.844 C 0.513965 17.844 0 17.3362 0 16.7086 C 0 16.0811 0.513965 15.5732 1.14911 15.5732 L 5.60348 15.5732 C 6.09028 15.5732 6.52485 15.8767 6.68782 16.3309 L 14.9698 39.5385 C 15.1808 40.131 14.8674 40.7792 14.2678 40.9877 C 14.1403 41.0311 14.0129 41.0538 13.8854 41.0538 L 13.8854 41.0538 Z" stroke-linecap="round" />
</g>
<g transform="matrix(25.32 0 0 22.94 764.48 209.18)"  >
<path style="stroke: none; stroke-width: 1; stroke-dasharray: none; stroke-linecap: butt; stroke-dashoffset: 0; stroke-linejoin: miter; stroke-miterlimit: 4; fill: rgb(8,172,10); fill-rule: nonzero; opacity: 1;" vector-effect="non-scaling-stroke"  transform=" translate(-29.09, -8.58)" d="M 26.3042 17.1508 L 26.3042 5.50361 C 26.3042 2.46486 28.7988 0 31.8742 0 L 31.8742 11.6472 C 31.8742 14.6859 29.3796 17.1508 26.3042 17.1508 Z" stroke-linecap="round" />
</g>
<g transform="matrix(25.32 0 0 22.94 556.96 315.8)"  >
<path style="stroke: none; stroke-width: 1; stroke-dasharray: none; stroke-linecap: butt; stroke-dashoffset: 0; stroke-linejoin: miter; stroke-miterlimit: 4; fill: rgb(8,172,10); fill-rule: nonzero; opacity: 1;" vector-effect="non-scaling-stroke"  transform=" translate(-20.92, -13.25)" d="M 16.9692 9.34326 L 18.7848 9.34326 C 22.1444 9.34326 24.8709 12.0373 24.8709 15.3568 L 24.8709 17.1507 L 23.0553 17.1507 C 19.6958 17.1507 16.9692 14.4567 16.9692 11.1372 L 16.9692 9.34326 L 16.9692 9.34326 Z" stroke-linecap="round" />
</g>
<g transform="matrix(25.32 0 0 22.94 671.88 548.94)"  >
<path style="stroke: none; stroke-width: 1; stroke-dasharray: none; stroke-linecap: butt; stroke-dashoffset: 0; stroke-linejoin: miter; stroke-miterlimit: 4; fill: rgb(255,112,6); fill-rule: nonzero; opacity: 1;" vector-effect="non-scaling-stroke"  transform=" translate(-25.46, -23.42)" d="M 35.0481 28.1604 C 35.0481 22.9293 30.7546 18.687 25.4603 18.687 C 20.1661 18.687 15.8726 22.9293 15.8726 28.1604 L 35.0481 28.1604 Z" stroke-linecap="round" />
</g>
<g transform="matrix(0 0 0 0 0 0)"  >
<g style=""   >
</g>
</g>
</svg>